PathFileType	4	(X/Y/Z)	/Users/mathieubourgeois/Desktop/Analyse/Traitement/Sujet_04/Transformed_Static_Sujet_04_Tpose.trc
DataRate	CameraRate	NumFrames	NumMarkers	Units	OrigDataRate	OrigDataStartFrame	OrigNumFrames
120.000000	120.000000	5	36	mm	120.000000	0	296
Frame#	Time	RFHD			RANE			STRN			LANI			LKNE			T10			RHUM			RWRB			C7			LFWT			LTOE			RTOE			LWRA			LBWT			RBWT			RFWT			LKNI			RKNI			RKNE			LANE			RANI			LHEE			RHEE			LHUM			LRAD			RRAD			RWRA			LWRB			LFHD			LBHD			RBHD			RSHO			LSHO			CLAV			LCAR			RCAR			
		X1	Y1	Z1	X2	Y2	Z2	X3	Y3	Z3	X4	Y4	Z4	X5	Y5	Z5	X6	Y6	Z6	X7	Y7	Z7	X8	Y8	Z8	X9	Y9	Z9	X10	Y10	Z10	X11	Y11	Z11	X12	Y12	Z12	X13	Y13	Z13	X14	Y14	Z14	X15	Y15	Z15	X16	Y16	Z16	X17	Y17	Z17	X18	Y18	Z18	X19	Y19	Z19	X20	Y20	Z20	X21	Y21	Z21	X22	Y22	Z22	X23	Y23	Z23	X24	Y24	Z24	X25	Y25	Z25	X26	Y26	Z26	X27	Y27	Z27	X28	Y28	Z28	X29	Y29	Z29	X30	Y30	Z30	X31	Y31	Z31	X32	Y32	Z32	X33	Y33	Z33	X34	Y34	Z34	X35	Y35	Z35	X36	Y36	Z36	

1	0	-659.5182495117188	1782.248046875	445.8659667968748	-777.8059692382812	91.47698974609376	191.7203369140624	-590.4890747070312	1326.723266601562	448.9478454589843	-551.1568603515625	99.7214813232422	242.1594848632812	-433.8098449707032	541.046142578125	264.1713256835936	-588.7640991210938	1316.496948242188	212.8611755371092	-1051.251098632812	1407.734619140625	305.2888183593748	-1328.48583984375	1481.964599609375	276.1243591308591	-602.0571899414062	1591.749877929688	273.3486938476561	-464.9994506835938	1062.413696289062	400.8024597167968	-484.0901489257813	34.74171066284183	420.9998168945312	-763.5482788085938	36.68323898315433	426.9837951660155	116.6175460815429	1581.803100585938	278.9479370117186	-531.3030395507812	1111.527465820312	205.1603698730468	-662.0934448242188	1111.297973632812	196.1149902343749	-759.685302734375	1074.861083984375	376.2812499999998	-553.1124267578125	500.4658508300781	264.3515014648436	-666.306640625	502.8828735351562	286.9624023437499	-779.2534790039062	547.1710815429688	280.3743896484373	-466.4652709960938	86.0123748779297	190.9820709228515	-690.3720092773438	97.51266479492189	229.0474853515624	-525.7432250976562	63.49713516235352	152.2201843261718	-729.9015502929688	71.10450744628908	148.4080200195312	-136.4325866699219	1442.561889648438	298.9003906249999	-135.9742279052735	1489.460571289062	242.1933135986327	-1059.680297851562	1458.568359375	256.4704589843748	-1315.035278320312	1527.028076171875	327.1518554687497	137.7268524169922	1505.0966796875	260.8482666015624	-527.4444580078125	1776.126953125	431.9480590820311	-558.7915649414062	1731.515747070312	276.5747680664061	-694.7025756835938	1734.069946289062	300.693634033203	-747.71240234375	1572.263305664062	297.9450378417966	-446.6094665527344	1589.510986328125	309.9930419921873	-589.7999267578125	1494.579956054688	403.8786010742186	229.8140563964843	1579.607055664062	243.7546386718749	-1424.275512695312	1530.640380859375	292.6156921386716	
2	0.008333333333333333	-659.5067749023438	1782.2734375	445.8816833496092	-777.8155517578125	91.49182891845705	191.705093383789	-590.5177001953125	1326.781494140625	449.020294189453	-551.151123046875	99.73188781738283	242.1658172607421	-433.7966613769532	541.0411987304688	264.144073486328	-588.7714233398438	1316.529296875	212.8563995361326	-1051.511840820312	1408.47412109375	305.1064758300779	-1328.6162109375	1483.286376953125	275.807434082031	-602.0894165039062	1591.787231445312	273.3695983886717	-464.9848327636719	1062.423217773438	400.7690124511718	-484.0830688476563	34.7430114746094	420.9938964843749	-763.5536499023438	36.69805908203128	426.9832763671874	116.5202865600586	1582.089965820312	278.6444396972655	-531.2821655273438	1111.53515625	205.1220703124999	-662.0816650390625	1111.3037109375	196.0907135009764	-759.6703491210938	1074.864624023438	376.262725830078	-553.1083374023438	500.4769897460938	264.3199462890624	-666.28662109375	502.8897399902344	286.9320373535155	-779.23974609375	547.179443359375	280.3629150390623	-466.4685974121094	86.01299285888673	190.9707641601562	-690.3722534179688	97.50492095947267	229.0300750732421	-525.7369384765625	63.49717712402344	152.2140045166015	-729.9230346679688	71.11273193359376	148.4031219482421	-136.4474029541016	1442.755737304688	298.7686767578124	-136.0196990966797	1489.638427734375	242.0330200195311	-1059.811401367188	1459.345336914062	256.345275878906	-1315.085327148438	1528.279052734375	326.8749999999997	137.6746520996093	1505.424072265625	260.5826721191405	-527.4450073242188	1776.140380859375	431.9244689941405	-558.8258056640625	1731.510498046875	276.5655822753905	-694.758056640625	1734.094970703125	300.7325744628905	-747.7247924804688	1572.34375	298.0138854980466	-446.6459960937501	1589.551391601562	310.0239868164061	-589.8408203125	1494.611083984375	403.9110717773436	229.3562622070312	1580.105834960938	243.2383575439453	-1424.291625976562	1532.194580078125	292.2353820800778	
3	0.01666666666666667	-659.5203857421875	1782.296752929688	445.898956298828	-777.8125	91.48182678222658	191.709014892578	-590.56298828125	1326.845336914062	449.082305908203	-551.1522216796875	99.73213195800783	242.1525268554687	-433.7801208496094	541.0435180664062	264.1135864257811	-588.773681640625	1316.565063476562	212.8606567382811	-1051.783813476562	1409.176025390625	304.9468078613279	-1328.73974609375	1484.570068359375	275.5037841796872	-602.1292724609375	1591.796142578125	273.3941345214842	-464.9727783203126	1062.43505859375	400.7283935546874	-484.0847167968751	34.7409591674805	420.9935302734374	-763.5518188476562	36.68656539916995	426.9708557128905	116.4323120117187	1582.406860351562	278.3847045898436	-532.1233520507812	1111.521118164062	205.0048522949218	-662.0618896484375	1111.3115234375	196.0645751953124	-759.6449584960938	1074.8642578125	376.2377319335936	-553.0924072265625	500.4755859375	264.2826843261718	-666.26416015625	502.8944091796875	286.9277038574218	-779.2291259765625	547.179931640625	280.3474121093748	-466.4601135253906	86.01747894287111	190.9670257568359	-690.3626708984375	97.50025177001955	229.0179748535155	-525.741455078125	63.49091720581055	152.2142333984374	-729.9166259765625	71.10790252685548	148.3801269531249	-136.4504699707032	1442.93017578125	298.6122741699218	-136.0653381347657	1489.805786132812	241.8941650390624	-1059.948974609375	1460.07958984375	256.2587890624998	-1315.141845703125	1529.499145507812	326.6083984374997	137.6248168945312	1505.746459960938	260.3047790527343	-527.4486083984375	1776.143798828125	431.9129638671873	-558.8720703125	1731.508056640625	276.5750427246092	-694.8018798828125	1734.112060546875	300.7710876464842	-747.7302856445312	1572.421875	298.0740661621091	-446.6910400390626	1589.59130859375	310.0640258789061	-589.8901977539062	1494.641357421875	403.9424438476561	229.6358337402343	1580.394287109375	243.0532989501953	-1424.289916992188	1533.76708984375	291.8721008300778	
4	0.025	-660.1217041015625	1781.20654296875	446.0852966308592	-778.587158203125	91.57440185546876	191.0872497558593	-590.607177734375	1326.922607421875	449.1639709472655	-556.955078125	100.9393692016602	242.482925415039	-433.8662109375001	541.2925415039062	264.1494140624999	-588.7696533203125	1316.5693359375	212.8182983398436	-1052.000732421875	1409.919311523438	304.8228759765623	-1328.83935546875	1485.896484375	275.262512207031	-602.1676025390625	1591.80126953125	273.4074707031248	-464.9468078613282	1062.436645507812	400.6979064941405	-484.0842285156251	34.74869537353518	420.9945983886718	-763.5516967773438	36.71988677978518	426.9789428710936	116.355728149414	1582.737426757812	278.1121215820311	-531.2522583007812	1111.562744140625	205.0576782226561	-661.4170532226562	1110.569091796875	195.746871948242	-759.614501953125	1074.876831054688	376.2320251464842	-553.0684204101562	500.4825744628906	264.2525024414061	-666.25	502.8966674804688	286.8958740234374	-779.2748413085938	546.7988891601562	279.860626220703	-466.4515380859375	86.00366210937501	190.9549560546874	-690.360107421875	97.4890594482422	229.0267486572265	-526.218017578125	63.21799087524415	152.9557952880859	-730.0308227539062	71.06269836425783	148.2447967529296	-136.4468078613282	1443.105834960938	298.4409790039061	-136.1124420166016	1489.960205078125	241.7394714355468	-1060.08740234375	1460.88427734375	256.1448974609373	-1315.174072265625	1530.741455078125	326.3668518066403	137.5827484130859	1506.090209960938	260.006866455078	-527.9168090820312	1775.647338867188	432.427276611328	-558.9143676757812	1731.515014648438	276.5800476074217	-694.7774658203125	1733.79345703125	300.6330261230467	-747.7344970703125	1572.52294921875	298.1127929687498	-446.7272644042969	1589.65380859375	310.1056213378905	-589.949951171875	1494.7001953125	403.9769592285155	229.4510955810547	1581.0068359375	243.2196044921874	-1424.23583984375	1535.392700195312	291.5495605468747	
5	0.03333333333333333	-659.5816650390625	1780.072021484375	445.7358093261717	-778.1480102539062	92.03625488281251	192.1610565185546	-590.3701782226562	1326.456298828125	449.4183044433593	-560.0607299804688	101.5632476806641	242.5401153564453	-433.5232238769532	539.483642578125	263.9409179687499	-588.5039672851562	1316.248046875	211.3207855224608	-1051.849609375	1410.112426757812	305.2528686523435	-1328.96875	1487.240478515625	274.9979248046872	-601.8466796875	1591.257446289062	273.4371948242186	-464.9240417480469	1061.515258789062	400.9752502441405	-482.0011596679688	33.71648025512698	421.2174377441406	-761.5147705078125	35.09352874755862	426.9940185546874	116.02587890625	1581.94384765625	278.7580261230468	-530.9262084960938	1111.0830078125	204.8510437011718	-661.2807006835938	1110.192016601562	195.3883056640624	-759.073974609375	1074.247192382812	376.191436767578	-553.2431640625	499.8525695800781	264.4155883789061	-666.093017578125	500.8283996582031	286.7625122070311	-779.502685546875	546.1425170898438	279.9320678710936	-465.9152526855469	85.26547241210939	190.883804321289	-690.1932983398438	97.45957183837892	229.0557403564452	-525.4520263671875	62.20222854614259	152.795425415039	-730.3446044921875	71.10501098632814	148.3150329589843	-136.0148620605469	1442.477172851562	298.3879394531249	-136.0743103027344	1490.135620117188	241.6698150634764	-1060.237426757812	1461.614624023438	256.0466613769529	-1315.273071289062	1530.983154296875	327.4785461425778	137.8636627197265	1505.06689453125	259.4157104492186	-527.3551635742188	1774.230590820312	432.7210388183592	-558.993408203125	1730.78369140625	276.2445983886717	-694.84326171875	1732.987670898438	301.2798461914061	-747.5278930664062	1571.433349609375	300.1239624023435	-446.7762756347657	1588.8037109375	309.9566650390623	-589.8170166015625	1494.181396484375	404.1192932128905	229.7550964355468	1580.808959960938	242.1742706298828	-1424.20166015625	1537.259643554688	291.9098815917966	
